#!OML:ASF Y:\EmotionMaleHayes\Project 1\Capture day 1\Session 1\Male1.ASF
:FULLY-SPECIFIED
:DEGREES
210
root -29.1259 17.0677 1.62396 63.4224 85.2025 64.6443
lowerback 8.28457 2.19109 -7.62503
upperback -1.40676 2.07391 -1.29131
thorax -6.37519 1.28275 2.63352
lowerneck -21.543 2.14041 3.9056
upperneck 20.3252 2.10798 -1.39183
head 10.0962 1.14131 -0.81828
rclavicle 9.37083e-015 1.8487e-014
rhumerus -38.7897 7.894 -94.5099
rradius 30.3751
rwrist 3.8819
rhand -10.3774 -31.7447
rfingers 7.12502
rthumb 15.6202 -61.134
lclavicle 9.37083e-015 1.8487e-014
lhumerus -35.1126 -9.92816 91.6361
lradius 24.8052
lwrist -12.7631
lhand -15.7097 -26.243
lfingers 7.12502
lthumb 10.4802 3.47577
rfemur 7.54574 -5.95109 9.411
rtibia 7.49345
rfoot -19.0503 -2.42002
rtoes 2.63646
lfemur 13.0063 1.03765 -17.7894
ltibia -1.99267
lfoot -12.7492 8.5154
ltoes -4.86643
211
root -29.1206 17.0693 1.65063 66.0676 85.2508 67.2774
lowerback 8.29 2.20421 -7.66514
upperback -1.34843 2.08685 -1.37432
thorax -6.3158 1.28651 2.56776
lowerneck -21.6292 2.07393 3.90454
upperneck 20.2606 1.98872 -1.31022
head 10.0844 1.09463 -0.806543
rclavicle -9.76918e-015 1.45113e-014
rhumerus -38.7817 7.89316 -94.7514
rradius 30.4202
rwrist 3.80326
rhand -10.219 -32.1828
rfingers 7.12502
rthumb 15.7728 -61.5601
lclavicle -9.76918e-015 1.45113e-014
lhumerus -34.9279 -9.86656 91.3303
lradius 24.7687
lwrist -12.7155
lhand -15.4083 -26.5406
lfingers 7.12502
lthumb 10.7709 3.1632
rfemur 7.57303 -6.03287 9.44181
rtibia 7.55748
rfoot -19.1785 -2.54635
rtoes 2.28622
lfemur 12.9812 0.410221 -17.9577
ltibia -2.0252
lfoot -12.7439 8.97756
ltoes -5.47268
212
root -29.1172 17.0676 1.68075 68.1445 85.5101 69.4007
lowerback 8.45493 2.23688 -7.52415
upperback -1.30109 2.13263 -1.34843
thorax -6.35907 1.30407 2.50557
lowerneck -21.7831 1.99325 3.68679
upperneck 20.2427 1.8899 -1.10969
head 10.0986 1.05495 -0.713615
rclavicle 2.12665e-014 -1.15295e-014
rhumerus -38.8601 7.60181 -94.6682
rradius 30.3867
rwrist 3.95679
rhand -10.2794 -31.4874
rfingers 7.12502
rthumb 15.7145 -60.8694
lclavicle 2.12665e-014 -1.15295e-014
lhumerus -34.7466 -9.99818 91.2025
lradius 24.701
lwrist -12.5572
lhand -16.8824 -26.7252
lfingers 7.12502
lthumb 9.3488 3.04749
rfemur 7.83961 -6.04563 9.76871
rtibia 7.26744
rfoot -19.141 -2.68115
rtoes 2.40354
lfemur 12.8591 0.132897 -17.6666
ltibia -1.71253
lfoot -12.7858 9.05335
ltoes -6.45493
213
root -29.1097 17.0605 1.71094 67.1908 85.9489 68.4948
lowerback 8.59698 2.32047 -7.16007
upperback -1.29038 2.27462 -1.21493
thorax -6.43227 1.36333 2.41777
lowerneck -21.7883 1.93619 3.39876
upperneck 20.1406 1.86228 -0.942991
head 10.0571 1.03852 -0.611558
rclavicle -1.1115e-014 -1.2921e-014
rhumerus -39.0448 7.43636 -94.5752
rradius 30.4079
rwrist 4.08569
rhand -10.3985 -31.1934
rfingers 7.12502
rthumb 15.5999 -60.5843
lclavicle -1.1115e-014 -1.2921e-014
lhumerus -34.7327 -9.99859 91.1632
lradius 24.6314
lwrist -12.775
lhand -16.23 -26.8487
lfingers 7.12502
lthumb 9.97831 2.89479
rfemur 8.03733 -6.05178 10.4019
rtibia 7.06511
rfoot -19.1551 -2.60156
rtoes 2.55606
lfemur 12.7683 -0.115594 -17.0601
ltibia -1.37015
lfoot -12.9289 9.24199
ltoes -7.4666
214
root -29.0972 17.0566 1.73817 66.697 86.233 68.0019
lowerback 8.61653 2.36296 -6.92274
upperback -1.26315 2.35887 -1.14206
thorax -6.4147 1.39558 2.34974
lowerneck -21.7185 1.89161 3.39081
upperneck 19.9582 1.83024 -1.05869
head 9.97922 1.00697 -0.656733
rclavicle -4.76967e-016 7.15625e-015
rhumerus -39.089 7.61335 -94.6983
rradius 30.357
rwrist 3.96787
rhand -10.3528 -31.3055
rfingers 7.12502
rthumb 15.6439 -60.693
lclavicle -4.76967e-016 7.15625e-015
lhumerus -34.7332 -9.88771 90.9962
lradius 24.7726
lwrist -12.3908
lhand -16.621 -26.9
lfingers 7.12502
lthumb 9.60104 2.86122
rfemur 8.10507 -5.86396 10.932
rtibia 7.02308
rfoot -19.316 -2.71995
rtoes 2.64634
lfemur 12.5501 0.129397 -16.5092
ltibia -0.859743
lfoot -12.9706 9.02978
ltoes -9.38971
215
root -29.0848 17.0539 1.76635 69.3815 86.2255 70.579
lowerback 8.53364 2.34212 -6.96144
upperback -1.24616 2.33238 -1.20928
thorax -6.34558 1.38112 2.30798
lowerneck -21.8019 1.84151 3.57007
upperneck 19.9614 1.77305 -1.36919
head 9.99873 0.955865 -0.804078
rclavicle -2.52985e-015 -2.38542e-015
rhumerus -39.1314 7.97932 -95.0137
rradius 30.4278
rwrist 3.62761
rhand -10.1932 -31.631
rfingers 7.12502
rthumb 15.7976 -61.0064
lclavicle -2.52985e-015 -2.38542e-015
lhumerus -34.7911 -10.0359 90.8458
lradius 25.0363
lwrist -12.079
lhand -15.5031 -26.4802
lfingers 7.12502
lthumb 10.6795 3.22841
rfemur 8.00251 -5.88929 10.9972
rtibia 7.15993
rfoot -19.5087 -2.77919
rtoes 2.93305
lfemur 12.0802 0.817076 -16.2111
ltibia -0.0958002
lfoot -13.0375 8.32536
ltoes -11.2097
216
root -29.0757 17.0536 1.79703 70.7464 86.2926 71.9567
lowerback 8.65211 2.34249 -6.83172
upperback -1.24504 2.33307 -1.28388
thorax -6.40266 1.37711 2.15282
lowerneck -21.932 1.78848 3.53246
upperneck 20.1123 1.71099 -1.37574
head 10.0743 0.92444 -0.808903
rclavicle -6.84254e-015 -1.43125e-014
rhumerus -39.321 8.2367 -95.3425
rradius 30.6191
rwrist 3.381
rhand -10.0741 -31.843
rfingers 7.12502
rthumb 15.9123 -61.2093
lclavicle -6.84254e-015 -1.43125e-014
lhumerus -34.8605 -9.93107 90.5306
lradius 25.4237
lwrist -11.4421
lhand -14.8414 -25.9127
lfingers 7.12502
lthumb 11.3177 3.76191
rfemur 7.99253 -5.96377 11.1463
rtibia 7.3282
rfoot -19.6336 -2.75427
rtoes 3.71593
lfemur 11.8971 0.881841 -16.0006
ltibia 0.324741
lfoot -13.2407 8.26478
ltoes -11.6765
217
root -29.0675 17.0551 1.82689 69.4876 86.5058 70.8506
lowerback 8.77339 2.38708 -6.63348
upperback -1.1291 2.41216 -1.20716
thorax -6.34947 1.40582 2.11004
lowerneck -21.8812 1.74089 3.29289
upperneck 19.9559 1.68061 -1.20381
head 10.0042 0.911077 -0.713487
rclavicle 1.55021e-014 1.59028e-015
rhumerus -39.296 8.48984 -95.4343
rradius 30.5838
rwrist 3.40936
rhand -9.96916 -31.8148
rfingers 7.12502
rthumb 16.0133 -61.173
lclavicle 1.55021e-014 1.59028e-015
lhumerus -34.7799 -9.36726 90.1837
lradius 25.393
lwrist -11.8222
lhand -15.4677 -26.4539
lfingers 7.12502
lthumb 10.7136 3.25294
rfemur 8.15901 -5.7886 11.5781
rtibia 7.3111
rfoot -19.6682 -2.85746
rtoes 4.90301
lfemur 11.9607 0.746022 -15.6489
ltibia 0.53372
lfoot -13.3376 8.61882
ltoes -12.8869
218
root -29.0548 17.0532 1.8556 68.4431 86.9004 69.797
lowerback 8.84905 2.42455 -6.21368
upperback -1.15033 2.5027 -1.13546
thorax -6.40608 1.43736 1.93442
lowerneck -21.7238 1.66465 3.25721
upperneck 19.7508 1.59735 -1.23812
head 9.90024 0.864407 -0.73288
rclavicle 2.03925e-014 -1.59028e-014
rhumerus -39.4484 8.50945 -95.515
rradius 30.5621
rwrist 3.64791
rhand -9.98243 -31.7462
rfingers 7.12502
rthumb 16.0006 -61.1055
lclavicle 2.03925e-014 -1.59028e-014
lhumerus -34.8483 -9.07956 89.9523
lradius 25.3866
lwrist -12.0672
lhand -15.7729 -26.6949
lfingers 7.12502
lthumb 10.4192 3.02692
rfemur 8.20986 -5.77808 12.1925
rtibia 7.25829
rfoot -19.7456 -2.9323
rtoes 5.4366
lfemur 11.7116 0.654101 -15.0566
ltibia 1.07425
lfoot -13.5877 8.72534
ltoes -13.5995
219
root -29.042 17.055 1.88843 70.1931 87.3573 71.5379
lowerback 8.87749 2.42375 -5.86486
upperback -1.10277 2.5449 -1.00418
thorax -6.36413 1.44526 1.87189
lowerneck -21.7334 1.55975 3.12726
upperneck 19.6331 1.50586 -1.29925
head 9.85689 0.803075 -0.746597
rclavicle -1.38932e-014 -7.55382e-015
rhumerus -39.6561 8.44725 -95.5714
rradius 30.8302
rwrist 3.65686
rhand -10.0576 -31.8644
rfingers 7.12502
rthumb 15.9281 -61.2295
lclavicle -1.38932e-014 -7.55382e-015
lhumerus -34.8146 -8.95896 89.8272
lradius 25.4982
lwrist -11.9753
lhand -15.7177 -26.6195
lfingers 7.12502
lthumb 10.4724 3.09965
rfemur 8.3565 -5.56891 12.9054
rtibia 7.14999
rfoot -19.9676 -3.26364
rtoes 5.56998
lfemur 11.3225 0.359013 -14.471
ltibia 1.88204
lfoot -14.037 8.61887
ltoes -12.9105
220
root -29.032 17.0514 1.9246 68.4669 87.6893 69.7379
lowerback 8.78009 2.50037 -5.64539
upperback -1.0178 2.68698 -0.872808
thorax -6.22504 1.50464 1.87241
lowerneck -21.9613 1.45902 2.87508
upperneck 19.6717 1.41597 -1.19964
head 9.9065 0.752766 -0.682599
rclavicle 5.67748e-014 -7.95139e-016
rhumerus -39.7463 8.46596 -95.6928
rradius 31.1747
rwrist 3.22973
rhand -10.0617 -32.3056
rfingers 7.12502
rthumb 15.9242 -61.671
lclavicle 5.67748e-014 -7.95139e-016
lhumerus -34.9051 -9.39094 89.8985
lradius 25.9631
lwrist -11.2543
lhand -15.5995 -26.3357
lfingers 7.12502
lthumb 10.5865 3.37762
rfemur 8.35288 -5.18467 13.5931
rtibia 7.04612
rfoot -20.1034 -3.53303
rtoes 5.98123
lfemur 10.8205 0.572644 -13.7963
ltibia 2.8206
lfoot -14.2791 8.23742
ltoes -13.0495
